<?xml version="1.0" encoding="UTF-8" standalone="no"?>
<svg width="198px" height="60px" viewBox="0 0 198 60" version="1.1" xmlns="http://www.w3.org/2000/svg" xmlns:xlink="http://www.w3.org/1999/xlink" xmlns:sketch="http://www.bohemiancoding.com/sketch/ns">
    <!-- Generator: Sketch 3.3.1 (12002) - http://www.bohemiancoding.com/sketch -->
    <title>Imported Layers 2</title>
    <desc>Created with Sketch.</desc>
    <defs></defs>
    <g id="Welcome" stroke="none" stroke-width="1" fill="none" fill-rule="evenodd" sketch:type="MSPage">
        <g id="Desktop-HD" sketch:type="MSArtboardGroup" transform="translate(-338.000000, -547.000000)">
            <g id="section-2" sketch:type="MSLayerGroup" transform="translate(-28.000000, 100.000000)">
                <g id="Imported-Layers-2-+-Imported-Layers-2-Copy" transform="translate(367.277179, 446.608838)" sketch:type="MSShapeGroup">
                    <g id="Imported-Layers-2" transform="translate(0.000000, 1.127928)">
                        <path d="M195.892914,52.0889513 C195.892914,55.2946273 193.371514,57.8908659 190.252817,57.8908659 L5.69706275,57.8908659 C2.5800667,57.8908659 0.0505895431,55.2946273 0.0505895431,52.0889513 L0.0505895431,5.822054 C0.0505895431,2.61769145 2.5800667,0.0126966135 5.69706275,0.0126966135 L190.251542,0.0126966135 C193.371514,0.0126966135 195.891213,2.61769145 195.891213,5.822054 L195.891213,52.0889513 L195.892914,52.0889513 L195.892914,52.0889513 Z" id="Stroke-1" stroke="#FFFFFF"></path>
                        <path d="M43.0568026,28.6339281 C43.0147155,23.7514235 46.9390187,21.3762811 47.1184202,21.2655141 C44.8954562,17.9284939 41.4506909,17.4727292 40.2399429,17.4363906 C37.3474114,17.1224778 34.5403294,19.2191703 33.0664307,19.2191703 C31.5631986,19.2191703 29.2934711,17.4665998 26.8473179,17.5178241 C23.6992879,17.5677349 20.7544663,19.4446446 19.1398522,22.359612 C15.806894,28.3020649 18.2921585,37.0351459 21.4861017,41.8388439 C23.0832858,44.1925334 24.9495723,46.8181055 27.3931748,46.724851 C29.7832119,46.6241537 30.6759685,45.1570382 33.5604227,45.1570382 C36.4189444,45.1570382 37.2572854,46.724851 39.7485016,46.6657461 C42.3141141,46.6241537 43.9295785,44.3033004 45.4706466,41.9290336 C47.3165272,39.2334113 48.0579403,36.5767543 48.0872738,36.4401563 C48.0286069,36.419579 43.1069671,34.4848778 43.0568026,28.6339281" id="Fill-2" fill="#FFFFFF"></path>
                        <path d="M38.3502746,14.2762473 C39.6354191,12.619996 40.5154221,10.3678794 40.2709768,8.08161338 C38.410642,8.16654935 36.083523,9.40731496 34.7435378,11.0267899 C33.557872,12.4536266 32.4988925,14.7928681 32.7726712,16.992447 C34.862572,17.1531248 37.008589,15.905792 38.3502746,14.2762473" id="Fill-3" fill="#FFFFFF"></path>
                        <path d="M77.6783304,46.3872962 L74.33772,46.3872962 L72.5079941,40.4658584 L66.1481658,40.4658584 L64.4047396,46.3872962 L61.1525547,46.3872962 L67.4549915,26.2281387 L71.3474104,26.2281387 L77.6783304,46.3872962 L77.6783304,46.3872962 Z M71.9561854,37.9817003 L70.3016098,32.7182973 C70.1264594,32.1797858 69.7974148,30.9136269 69.314476,28.9202586 L69.2558091,28.9202586 C69.0615283,29.7779367 68.7516142,31.0436578 68.326492,32.7182973 L66.6995493,37.9817003 L71.9561854,37.9817003 L71.9561854,37.9817003 Z" id="Fill-4" fill="#FFFFFF"></path>
                        <path d="M93.8555059,38.9405135 C93.8555059,41.4124128 93.2042186,43.3668157 91.8990935,44.8019708 C90.7312827,46.0781994 89.2790653,46.7160947 87.5479676,46.7160947 C85.6787053,46.7160947 84.3340437,46.029602 83.517384,44.6539896 L83.517384,52.2815896 L80.3816825,52.2815896 L80.3816825,36.6301677 C80.3816825,35.0768027 80.3421462,33.4849101 80.265199,31.8514251 L83.0229668,31.8514251 L83.1985423,34.1565171 L83.2576343,34.1565171 C84.3030098,32.419708 85.8904161,31.5528357 88.0198533,31.5528357 C89.6854821,31.5528357 91.0752066,32.2305722 92.1869012,33.5856073 C93.2981707,34.9437072 93.8555059,36.7273624 93.8555059,38.9405135 L93.8555059,38.9405135 Z M90.6607125,39.0587234 C90.6607125,37.6445833 90.3512235,36.4778083 89.7309702,35.5588362 C89.0529003,34.6030877 88.1418634,34.1241189 87.0008353,34.1241189 C86.2271129,34.1241189 85.5239608,34.3903099 84.8956302,34.9165627 C84.2664493,35.4463179 83.8545059,36.1385023 83.6619255,36.9966182 C83.5649976,37.3963426 83.5161086,37.7229521 83.5161086,37.9803869 L83.5161086,40.40544 C83.5161086,41.4610102 83.8315493,42.3537135 84.4607301,43.0826742 C85.0903361,43.8103215 85.9078461,44.174583 86.9141104,44.174583 C88.095525,44.174583 89.0150644,43.7039326 89.6723033,42.7691992 C90.3312427,41.8309633 90.6607125,40.5945758 90.6607125,39.0587234 L90.6607125,39.0587234 Z" id="Fill-5" fill="#FFFFFF"></path>
                        <path d="M110.090498,38.9405135 C110.090498,41.4124128 109.438786,43.3668157 108.133235,44.8019708 C106.964574,46.0781994 105.513632,46.7160947 103.781684,46.7160947 C101.912422,46.7160947 100.568186,46.029602 99.7506756,44.6539896 L99.7506756,52.2815896 L96.6149741,52.2815896 L96.6149741,36.6301677 C96.6149741,35.0768027 96.5754378,33.4849101 96.4984907,31.8514251 L99.2566836,31.8514251 L99.432259,34.1565171 L99.4909259,34.1565171 C100.535026,32.419708 102.122858,31.5528357 104.253995,31.5528357 C105.917498,31.5528357 107.308073,32.2305722 108.422318,33.5856073 C109.531462,34.9437072 110.090498,36.7273624 110.090498,38.9405135 L110.090498,38.9405135 Z M106.894004,39.0587234 C106.894004,37.6445833 106.58409,36.4778083 105.963412,35.5588362 C105.285342,34.6030877 104.377281,34.1241189 103.235827,34.1241189 C102.46168,34.1241189 101.758528,34.3903099 101.128497,34.9165627 C100.498891,35.4463179 100.088648,36.1385023 99.8952171,36.9966182 C99.7995646,37.3963426 99.7498253,37.7229521 99.7498253,37.9803869 L99.7498253,40.40544 C99.7498253,41.4610102 100.065691,42.3537135 100.691471,43.0826742 C101.321077,43.8090081 102.139437,44.174583 103.148252,44.174583 C104.330517,44.174583 105.249206,43.7039326 105.90602,42.7691992 C106.563684,41.8309633 106.894004,40.5945758 106.894004,39.0587234 L106.894004,39.0587234 Z" id="Fill-6" fill="#FFFFFF"></path>
                        <path d="M128.241516,40.7338007 C128.241516,42.4495948 127.659524,43.844471 126.501491,44.9214941 C125.227399,46.097901 123.449538,46.6867612 121.169608,46.6867612 C119.063552,46.6867612 117.374542,46.2677729 116.100451,45.4302343 L116.826134,42.7381144 C118.200554,43.5769665 119.711864,43.9955169 121.356662,43.9955169 C122.538501,43.9955169 123.458041,43.7201318 124.114429,43.172864 C124.772094,42.6242827 125.103689,41.8918194 125.103689,40.9763498 C125.103689,40.1567615 124.82991,39.4702688 124.28958,38.9107422 C123.747124,38.3534046 122.848841,37.8341569 121.589204,37.3565015 C118.161443,36.0395563 116.4465,34.1149248 116.4465,31.5826071 C116.4465,29.9285448 117.052724,28.5735097 118.262622,27.5157505 C119.47167,26.4588668 121.075231,25.9299872 123.068629,25.9299872 C124.850316,25.9299872 126.333993,26.2495916 127.512856,26.8870492 L126.725955,29.5200641 C125.616386,28.9018704 124.364401,28.5927735 122.964899,28.5927735 C121.859156,28.5927735 120.991482,28.8729747 120.371228,29.43075 C119.848328,29.9285448 119.583902,30.5366688 119.583902,31.2573111 C119.583902,32.0528196 119.885739,32.7126057 120.486011,33.23054 C121.007211,33.7081953 121.956934,34.227443 123.330079,34.7847806 C125.016114,35.4852834 126.254495,36.3000557 127.048198,37.2365404 C127.843176,38.1730251 128.241516,39.3402379 128.241516,40.7338007" id="Fill-7" fill="#FFFFFF"></path>
                        <path d="M138.636604,34.274727 L135.180786,34.274727 L135.180786,41.3327306 C135.180786,43.1268935 135.789986,44.0239749 137.010937,44.0239749 C137.571248,44.0239749 138.036332,43.9745019 138.404062,43.8738046 L138.490362,46.3268779 C137.87266,46.5650488 137.059401,46.6850099 136.051436,46.6850099 C134.813055,46.6850099 133.845477,46.2957931 133.147001,45.5177971 C132.451926,44.7393634 132.1012,43.4346769 132.1012,41.5989217 L132.1012,34.2716623 L130.041058,34.2716623 L130.041058,31.8487982 L132.1012,31.8487982 L132.1012,29.1868875 L135.180786,28.2298255 L135.180786,31.8487982 L138.636604,31.8487982 L138.636604,34.274727" id="Fill-8" fill="#FFFFFF"></path>
                        <path d="M154.202879,39.0000563 C154.202879,41.2333468 153.582201,43.0682263 152.34382,44.5029437 C151.048472,45.9792533 149.324177,46.7160947 147.175184,46.7160947 C145.101013,46.7160947 143.451963,46.0090247 142.22251,44.5944468 C140.992632,43.1785555 140.377905,41.393149 140.377905,39.2408541 C140.377905,36.9878619 141.013037,35.1429127 142.279902,33.7081953 C143.549742,32.2717267 145.259158,31.5541492 147.407726,31.5541492 C149.479346,31.5541492 151.142424,32.2629705 152.401211,33.678424 C153.603032,35.0527229 154.202879,36.824995 154.202879,39.0000563 L154.202879,39.0000563 Z M150.950269,39.0740469 C150.950269,37.7422159 150.670114,36.6003963 150.110228,35.6446478 C149.451713,34.4905694 148.511343,33.9135302 147.291667,33.9135302 C146.034581,33.9135302 145.072104,34.4905694 144.415716,35.6446478 C143.854554,36.6003963 143.573974,37.7627932 143.573974,39.1344652 C143.573974,40.4671718 143.854554,41.6124939 144.415716,42.5651778 C145.093785,43.7188183 146.040108,44.2958575 147.264459,44.2958575 C148.464154,44.2958575 149.403249,43.7074352 150.082169,42.5354064 C150.661186,41.5590806 150.950269,40.4080669 150.950269,39.0740469 L150.950269,39.0740469 Z" id="Fill-9" fill="#FFFFFF"></path>
                        <path d="M164.399435,34.691964 C164.089521,34.632859 163.757501,34.6030877 163.411876,34.6030877 C162.308259,34.6030877 161.455039,35.0308322 160.854766,35.8902616 C160.333141,36.6476803 160.071691,37.6047422 160.071691,38.760134 L160.071691,46.3872962 L156.93599,46.3872962 L156.93599,36.4287731 C156.93599,34.7541336 156.905806,33.2274753 156.845014,31.8531763 L159.577699,31.8531763 L159.692907,34.6341725 L159.778782,34.6341725 C160.110377,33.678424 160.632002,32.9078709 161.347483,32.3308317 C162.045534,31.811584 162.800976,31.5528357 163.614235,31.5528357 C163.904168,31.5528357 164.166043,31.573413 164.398585,31.6123785 L164.398585,34.691964 L164.399435,34.691964" id="Fill-10" fill="#FFFFFF"></path>
                        <path d="M178.425067,38.4317734 C178.425067,39.010126 178.388082,39.4982889 178.310709,39.896262 L168.90318,39.896262 C168.939315,41.3327306 169.394196,42.4320822 170.267822,43.1895009 C171.06025,43.8654861 172.086495,44.2043543 173.344857,44.2043543 C174.737982,44.2043543 176.008248,43.9758153 177.150976,43.5178616 L177.642417,45.7590328 C176.306258,46.3579627 174.729055,46.656552 172.910807,46.656552 C170.721428,46.656552 169.003509,45.994139 167.754075,44.6684375 C166.506766,43.3427359 165.880561,41.5617075 165.880561,39.3292926 C165.880561,37.13847 166.460853,35.3132224 167.624838,33.85749 C168.842813,32.3028116 170.488886,31.5261291 172.560506,31.5261291 C174.594291,31.5261291 176.134084,32.3028116 177.179459,33.85749 C178.008873,35.0912506 178.425067,36.6183467 178.425067,38.4317734 L178.425067,38.4317734 Z M175.434758,37.5946725 C175.456014,36.6358593 175.250255,35.8101416 174.825558,35.1122657 C174.282676,34.2125574 173.448162,33.7646734 172.327114,33.7646734 C171.30172,33.7646734 170.467205,34.2024876 169.830797,35.0811808 C169.307896,35.7794946 168.997557,36.6183467 168.90318,37.5929212 L175.434758,37.5929212 L175.434758,37.5946725 L175.434758,37.5946725 Z" id="Fill-11" fill="#FFFFFF"></path>
                        <path d="M65.2430806,19.1013982 C64.3707298,19.1013982 63.6161379,19.0567412 62.9882324,18.9827506 L62.9882324,9.23612958 C63.8014912,9.10434749 64.6857454,9.02991906 65.6431206,9.02991906 C69.2396545,9.02991906 70.8959306,10.8525398 70.8959306,13.8231096 C70.8959306,17.2498818 68.9399433,19.1013982 65.2430806,19.1013982 L65.2430806,19.1013982 Z M65.7693819,10.2798788 C65.2838923,10.2798788 64.8706735,10.310088 64.5284502,10.3827651 L64.5284502,17.7923336 C64.7133783,17.8225428 65.0692056,17.8365529 65.5699996,17.8365529 C67.926452,17.8365529 69.2672874,16.4543732 69.2672874,13.8673288 C69.2672874,11.5604855 68.0539886,10.2798788 65.7693819,10.2798788 L65.7693819,10.2798788 Z" id="Fill-12" fill="#FFFFFF"></path>
                        <path d="M76.0573394,19.174951 C74.0303567,19.174951 72.7167291,17.6158945 72.7167291,15.500376 C72.7167291,13.2946677 74.0584148,11.7220389 76.1721224,11.7220389 C78.1697717,11.7220389 79.5127327,13.2066671 79.5127327,15.3834796 C79.5127327,17.6158945 78.1285348,19.174951 76.0573394,19.174951 L76.0573394,19.174951 Z M76.1164314,12.8818089 C75.0026112,12.8818089 74.2892561,13.9544538 74.2892561,15.4544055 C74.2892561,16.9258992 75.0170653,17.9981063 76.101127,17.9981063 C77.1856137,17.9981063 77.9138481,16.851033 77.9138481,15.4246341 C77.9138481,13.9702151 77.2000679,12.8818089 76.1164314,12.8818089 L76.1164314,12.8818089 Z" id="Fill-13" fill="#FFFFFF"></path>
                        <path d="M91.0709554,11.8687067 L88.9015568,19.0133976 L87.4876003,19.0133976 L86.589317,15.9101701 C86.3610264,15.1321742 86.175248,14.3673127 86.0319818,13.6033268 L86.0022233,13.6033268 C85.8891408,14.3821984 85.674454,15.1623834 85.4457383,15.9101701 L84.4900636,19.0133976 L83.0620781,19.0133976 L81.0202161,11.8687067 L82.6046466,11.8687067 L83.3894222,15.2657075 C83.5747754,16.0743505 83.7307953,16.8378985 83.8604576,17.5589786 L83.8902161,17.5589786 C84.0028735,16.9574218 84.1882268,16.2061326 84.4607301,15.2797176 L85.4457383,11.870458 L86.7019744,11.870458 L87.6453206,15.2074782 C87.8736112,16.0169968 88.0589645,16.8103162 88.2022307,17.5607299 L88.2438927,17.5607299 C88.3437964,16.8260776 88.5010916,16.0454547 88.714503,15.2074782 L89.5579454,11.870458 L91.0709554,11.870458 L91.0709554,11.8687067" id="Fill-14" fill="#FFFFFF"></path>
                        <path d="M99.0585766,19.0133976 L97.5162332,19.0133976 L97.5162332,14.911078 C97.5162332,13.647546 97.0456229,13.0144666 96.1180063,13.0144666 C95.2044187,13.0144666 94.576088,13.8231096 94.576088,14.7639724 L94.576088,19.0133976 L93.0345949,19.0133976 L93.0345949,13.9106724 C93.0345949,13.2793443 93.0201407,12.6024834 92.9772034,11.8673933 L94.3329181,11.8673933 L94.405614,12.9702474 L94.4481262,12.9702474 C94.8634706,12.2066993 95.7043624,11.7220389 96.6472834,11.7220389 C98.103327,11.7220389 99.0602771,12.8686745 99.0602771,14.7346388 L99.0602771,19.0133976 L99.0585766,19.0133976" id="Fill-15" fill="#FFFFFF"></path>
                        <path d="M101.76618,8.59079136 L103.309374,8.59079136 L103.309374,19.0133976 L101.76618,19.0133976 L101.76618,8.59079136 Z" id="Fill-16" fill="#FFFFFF"></path>
                        <path d="M108.929064,19.174951 C106.905057,19.174951 105.590154,17.6158945 105.590154,15.500376 C105.590154,13.2946677 106.931415,11.7220389 109.042997,11.7220389 C111.042772,11.7220389 112.384032,13.2066671 112.384032,15.3834796 C112.384032,17.6158945 111.00026,19.174951 108.929064,19.174951 L108.929064,19.174951 Z M108.986881,12.8818089 C107.873911,12.8818089 107.159705,13.9544538 107.159705,15.4544055 C107.159705,16.9258992 107.88964,17.9981063 108.971151,17.9981063 C110.057338,17.9981063 110.784297,16.851033 110.784297,15.4246341 C110.784297,13.9702151 110.071793,12.8818089 108.986881,12.8818089 L108.986881,12.8818089 Z" id="Fill-17" fill="#FFFFFF"></path>
                        <path d="M118.460729,19.0133976 L118.348922,18.1907446 L118.306835,18.1907446 C117.836225,18.8527198 117.149227,19.174951 116.278577,19.174951 C115.035945,19.174951 114.152541,18.2787453 114.152541,17.072567 C114.152541,15.3090511 115.636642,14.397084 118.206506,14.397084 L118.206506,14.265302 C118.206506,13.3244391 117.722292,12.8537888 116.765342,12.8537888 C116.08217,12.8537888 115.481473,13.0306658 114.952196,13.383544 L114.639306,12.3397949 C115.279965,11.9282495 116.08217,11.7220389 117.021691,11.7220389 C118.834412,11.7220389 119.747574,12.7066832 119.747574,14.6772852 L119.747574,17.3089867 C119.747574,18.0305046 119.777758,18.5887178 119.848328,19.014711 L118.460729,19.014711 L118.460729,19.0133976 L118.460729,19.0133976 Z M118.249018,15.4544055 C116.537051,15.4544055 115.678304,15.88215 115.678304,16.89569 C115.678304,17.6456658 116.120431,18.0116786 116.735158,18.0116786 C117.519509,18.0116786 118.249018,17.3952361 118.249018,16.5572596 L118.249018,15.4544055 L118.249018,15.4544055 Z" id="Fill-18" fill="#FFFFFF"></path>
                        <path d="M127.237377,19.0133976 L127.165532,17.8658864 L127.122169,17.8658864 C126.680042,18.7327586 125.935653,19.174951 124.895804,19.174951 C123.223798,19.174951 121.983717,17.6601137 121.983717,15.5288339 C121.983717,13.2946677 123.268861,11.7207255 125.022065,11.7207255 C125.950532,11.7207255 126.608196,12.0433946 126.978903,12.6913597 L127.008661,12.6913597 L127.008661,8.59079136 L128.55143,8.59079136 L128.55143,17.0878905 C128.55143,17.7787614 128.567585,18.4249752 128.608821,19.0133976 L127.237377,19.0133976 L127.237377,19.0133976 Z M127.008661,14.8099429 C127.008661,13.8095373 126.367152,12.9566751 125.38427,12.9566751 C124.240691,12.9566751 123.54264,14.0004243 123.54264,15.4692912 C123.54264,16.9101379 124.267899,17.8960956 125.354086,17.8960956 C126.32379,17.8960956 127.008661,17.0283477 127.008661,15.9994842 L127.008661,14.8099429 L127.008661,14.8099429 Z" id="Fill-19" fill="#FFFFFF"></path>
                        <path d="M138.335193,19.174951 C136.310335,19.174951 134.997133,17.6158945 134.997133,15.500376 C134.997133,13.2946677 136.338819,11.7220389 138.449976,11.7220389 C140.44975,11.7220389 141.791011,13.2066671 141.791011,15.3834796 C141.791011,17.6158945 140.406813,19.174951 138.335193,19.174951 L138.335193,19.174951 Z M138.392584,12.8818089 C137.281315,12.8818089 136.567109,13.9544538 136.567109,15.4544055 C136.567109,16.9258992 137.295344,17.9981063 138.378555,17.9981063 C139.464742,17.9981063 140.191276,16.851033 140.191276,15.4246341 C140.192552,13.9702151 139.478771,12.8818089 138.392584,12.8818089 L138.392584,12.8818089 Z" id="Fill-20" fill="#FFFFFF"></path>
                        <path d="M150.079619,19.0133976 L148.53685,19.0133976 L148.53685,14.911078 C148.53685,13.647546 148.06539,13.0144666 147.138198,13.0144666 C146.224611,13.0144666 145.59798,13.8231096 145.59798,14.7639724 L145.59798,19.0133976 L144.055212,19.0133976 L144.055212,13.9106724 C144.055212,13.2793443 144.041183,12.6024834 143.99782,11.8673933 L145.35396,11.8673933 L145.425381,12.9702474 L145.468743,12.9702474 C145.881962,12.2066993 146.724129,11.7207255 147.666625,11.7207255 C149.123094,11.7207255 150.079619,12.867361 150.079619,14.7333254 L150.079619,19.0133976" id="Fill-21" fill="#FFFFFF"></path>
                        <path d="M160.4509,13.0595615 L158.755088,13.0595615 L158.755088,16.5288017 C158.755088,17.411873 159.052248,17.8523142 159.652096,17.8523142 C159.923749,17.8523142 160.152039,17.8225428 160.336117,17.7787614 L160.37948,18.984064 C160.080619,19.1027117 159.681004,19.1618166 159.182336,19.1618166 C157.967336,19.1618166 157.240802,18.4709457 157.240802,16.6618972 L157.240802,13.0595615 L156.227736,13.0595615 L156.227736,11.8687067 L157.240802,11.8687067 L157.240802,10.5600799 L158.755088,10.0889918 L158.755088,11.8673933 L160.4509,11.8673933 L160.4509,13.0595615" id="Fill-22" fill="#FFFFFF"></path>
                        <path d="M168.612822,19.0133976 L167.073029,19.0133976 L167.073029,14.9412872 C167.073029,13.6624317 166.603269,13.0157801 165.673952,13.0157801 C164.875147,13.0157801 164.131183,13.5744311 164.131183,14.7061809 L164.131183,19.0133976 L162.591391,19.0133976 L162.591391,8.59079136 L164.131183,8.59079136 L164.131183,12.8818089 L164.160942,12.8818089 C164.646856,12.103813 165.349158,11.7207255 166.247016,11.7207255 C167.715389,11.7207255 168.612822,12.8962568 168.612822,14.7639724 L168.612822,19.0133976" id="Fill-23" fill="#FFFFFF"></path>
                        <path d="M176.97285,15.8230451 L172.34752,15.8230451 C172.376854,17.1750155 173.246654,17.9394392 174.533924,17.9394392 C175.21752,17.9394392 175.846701,17.8207915 176.402761,17.6010088 L176.64253,18.7038629 C175.986141,18.9976363 175.214969,19.1447419 174.315411,19.1447419 C172.146437,19.1447419 170.862143,17.7327909 170.862143,15.5441574 C170.862143,13.3542105 172.176621,11.7067154 174.143236,11.7067154 C175.915996,11.7067154 177.027691,13.0595615 177.027691,15.1032784 C177.030241,15.3821661 177.017913,15.6325959 176.97285,15.8230451 L176.97285,15.8230451 Z M175.559318,14.6912952 C175.559318,13.5884411 175.019413,12.8095696 174.03398,12.8095696 C173.149301,12.8095696 172.448274,13.6033268 172.34752,14.6912952 L175.559318,14.6912952 L175.559318,14.6912952 Z" id="Fill-24" fill="#FFFFFF"></path>
                    </g>
                </g>
            </g>
        </g>
    </g>
</svg>