<?xml version="1.0" encoding="UTF-8" standalone="no"?>
<svg width="198px" height="59px" viewBox="0 0 198 59" version="1.1" xmlns="http://www.w3.org/2000/svg" xmlns:xlink="http://www.w3.org/1999/xlink" xmlns:sketch="http://www.bohemiancoding.com/sketch/ns">
    <!-- Generator: Sketch 3.3.1 (12002) - http://www.bohemiancoding.com/sketch -->
    <title>Imported Layers 2 Copy</title>
    <desc>Created with Sketch.</desc>
    <defs></defs>
    <g id="Welcome" stroke="none" stroke-width="1" fill="none" fill-rule="evenodd" sketch:type="MSPage">
        <g id="Desktop-HD" sketch:type="MSArtboardGroup" transform="translate(-564.000000, -546.000000)">
            <g id="section-2" sketch:type="MSLayerGroup" transform="translate(-28.000000, 100.000000)">
                <g id="Imported-Layers-2-+-Imported-Layers-2-Copy" transform="translate(367.277179, 446.608838)" sketch:type="MSShapeGroup">
                    <g id="Imported-Layers-2-Copy" transform="translate(225.899497, 0.000000)">
                        <path d="M195.842324,52.0762547 C195.842324,55.2819307 193.320924,57.8781692 190.202228,57.8781692 L5.64647321,57.8781692 C2.52947716,57.8781692 0,55.2819307 0,52.0762547 L0,5.80935739 C0,2.60499483 2.52947716,0 5.64647321,0 L190.200953,0 C193.320924,0 195.840624,2.60499483 195.840624,5.80935739 L195.840624,52.0762547 L195.842324,52.0762547 L195.842324,52.0762547 Z" id="Stroke-1" stroke="#FFFFFF"></path>
                        <g id="Group" transform="translate(60.203504, 12.143860)">
                            <path d="M89.0934356,28.4429224 C88.3135499,28.4429224 87.6012905,28.2986918 86.9566577,28.0105949 C86.3120248,27.7221338 85.7706496,27.2785156 85.3332591,26.6801044 L85.2020056,26.6801044 C85.2892655,27.380861 85.3332591,28.0455599 85.3332591,28.6731085 L85.3332591,33.6115484 L83.5193429,33.6115484 L83.5193429,16.2226602 L84.9947632,16.2226602 L85.2456356,17.8652861 L85.3332591,17.8652861 C85.8000998,17.2082357 86.343293,16.7336589 86.962475,16.4415556 C87.5816571,16.1498165 88.292462,16.0037649 89.0934356,16.0037649 C90.6826574,16.0037649 91.9086597,16.5475432 92.771806,17.6350999 C93.6353159,18.7230209 94.0676162,20.2487325 94.0676162,22.212235 C94.0676162,24.183386 93.6284078,25.7145609 92.7510818,26.8068525 C91.8723014,27.8973229 90.6535708,28.4429224 89.0934356,28.4429224 L89.0934356,28.4429224 Z M88.8312922,17.5476875 C87.6067443,17.5476875 86.721783,17.8871392 86.1753176,18.5660427 C85.6288522,19.2449461 85.348166,20.3255827 85.3332591,21.8075881 L85.3332591,22.212235 C85.3332591,23.8989313 85.6139453,25.1055874 86.1753176,25.8318393 C86.7366899,26.557727 87.6369217,26.9212171 88.8749222,26.9212171 C89.9104069,26.9212171 90.7211972,26.5016373 91.3080204,25.6621135 C91.8944799,24.8229538 92.1875279,23.6658314 92.1875279,22.1903818 C92.1875279,20.6941719 91.8944799,19.5457907 91.3080204,18.7466951 C90.7211972,17.9468711 89.8951364,17.5476875 88.8312922,17.5476875 L88.8312922,17.5476875 Z" id="Fill-13" fill="#FBFBFB"></path>
                            <path d="M96.4545393,11.1855171 L98.2688191,11.1855171 L98.2688191,28.2236628 L96.4545393,28.2236628 L96.4545393,11.1855171 Z" id="Fill-14" fill="#FBFBFB"></path>
                            <path d="M108.700746,28.2236628 L108.339708,26.5154776 L108.252448,26.5154776 C107.654717,27.2679532 107.058804,27.777495 106.465073,28.0430104 C105.871342,28.3099826 105.129632,28.4429224 104.240672,28.4429224 C103.053209,28.4429224 102.122073,28.1362503 101.44799,27.5229062 C100.773543,26.9099263 100.436865,26.037987 100.436865,24.9063599 C100.436865,22.4828494 102.371854,21.2128192 106.240742,21.0955408 L108.274626,21.0296172 L108.274626,20.2851544 C108.274626,19.3432851 108.072474,18.6479918 107.667443,18.1992745 C107.263502,17.7498288 106.61596,17.5258344 105.727363,17.5258344 C104.7286,17.5258344 103.598947,17.8321422 102.338768,18.4454863 L101.781032,17.0548997 C102.371854,16.7336589 103.017942,16.4819839 103.721839,16.2991461 C104.424645,16.1170369 105.129632,16.025618 105.836802,16.025618 C107.264956,16.025618 108.323346,16.3432166 109.012336,16.9780496 C109.700599,17.6132468 110.044912,18.631602 110.044912,20.0331151 L110.044912,28.2236628 L108.700746,28.2236628 L108.700746,28.2236628 Z M104.602073,26.9430702 C105.730999,26.9430702 106.618142,26.632756 107.263502,26.0124917 C107.907771,25.3922275 108.230996,24.5232019 108.230996,23.4057793 L108.230996,22.3218648 L106.415626,22.3983507 C104.972928,22.4497055 103.933444,22.6736999 103.294992,23.0721551 C102.657631,23.470246 102.338768,24.0886891 102.338768,24.928213 C102.338768,25.5852633 102.536921,26.0853355 102.934681,26.4277009 C103.331714,26.7711591 103.886905,26.9430702 104.602073,26.9430702 L104.602073,26.9430702 Z" id="Fill-15" fill="#FBFBFB"></path>
                            <path d="M111.098576,16.2226602 L113.043382,16.2226602 L115.666998,23.0666918 C116.24255,24.6291895 116.600316,25.7568103 116.738841,26.4506467 L116.826465,26.4506467 C116.92136,26.0776869 117.119876,25.4410328 117.42165,24.5388633 C117.724515,23.6374223 118.713825,20.8657188 120.389216,16.2226602 L122.33584,16.2226602 L117.186776,29.8881418 C116.677032,31.2390285 116.081119,32.1969234 115.399037,32.7636475 C114.718046,33.3289148 113.881442,33.6115484 112.891041,33.6115484 C112.33694,33.6115484 111.790475,33.549267 111.250918,33.4254327 L111.250918,31.969651 C111.651223,32.0570635 112.100248,32.1011339 112.595812,32.1011339 C113.842175,32.1011339 114.730408,31.4000131 115.263057,29.9985 L115.929505,28.2903148 L111.098576,16.2226602" id="Fill-16" fill="#FBFBFB"></path>
                            <path d="M55.4805405,17.3378976 C56.0564561,17.8150239 57.2591891,18.8184461 57.2591891,20.7269516 C57.2591891,22.5833737 56.2066159,23.46369 55.1540428,24.2908305 C54.8279088,24.6164419 54.4523274,24.9697339 54.4523274,25.5222535 C54.4523274,26.0733162 54.8279088,26.3748892 55.1045955,26.601069 L56.0070088,27.302554 C57.1097564,28.2316756 58.1107007,29.0857682 58.1107007,30.8187203 C58.1107007,33.1777641 55.8303074,35.561939 51.5211204,35.561939 C47.8871072,35.561939 46.1339094,33.8304438 46.1339094,31.9718363 C46.1339094,31.06821 46.5832981,29.7887101 48.063445,28.9091222 C49.6155813,27.9552337 51.7221818,27.8310352 52.8492895,27.754185 C52.497341,27.302554 52.0973996,26.8257919 52.0973996,26.0485494 C52.0973996,25.6227778 52.2228358,25.3711028 52.3479084,25.0688014 C52.0712216,25.0939325 51.7959892,25.1186993 51.5451169,25.1186993 C48.8898694,25.1186993 47.3860896,23.1358933 47.3860896,21.1789468 C47.3860896,20.0240097 47.9132851,18.7430529 48.9894912,17.8150239 C50.4180092,16.6353199 52.1221233,16.4342712 53.4761068,16.4342712 L58.6371691,16.4342712 L57.0334039,17.3378976 L55.4805405,17.3378976 L55.4805405,17.3378976 Z M53.7011647,28.4837149 C53.5008304,28.4574911 53.3746671,28.4574911 53.1256126,28.4574911 C52.9001911,28.4574911 51.5451169,28.5084817 50.4936345,28.8610453 C49.9428061,29.0602729 48.3386774,29.6626905 48.3386774,31.4459047 C48.3386774,33.2269336 50.0682423,34.5093472 52.7496677,34.5093472 C55.1540428,34.5093472 56.4331282,33.3522248 56.4331282,31.7970114 C56.4331282,30.514962 55.6059766,29.8397007 53.7011647,28.4837149 L53.7011647,28.4837149 Z M54.4283309,23.713544 C55.003883,23.1358933 55.0529667,22.3331555 55.0529667,21.8811603 C55.0529667,20.0739076 53.9760336,17.2625043 51.8970653,17.2625043 C51.2447972,17.2625043 50.543809,17.58848 50.1424132,18.0911016 C49.7173846,18.6184901 49.5908576,19.2955725 49.5908576,19.9489806 C49.5908576,21.6302137 50.568169,24.4168501 52.7242169,24.4168501 C53.3506706,24.4168501 54.0254809,24.1156413 54.4283309,23.713544 L54.4283309,23.713544 Z" id="Fill-17" fill="#FBFBFB"></path>
                            <path d="M39.7053964,28.0819818 C35.7281607,28.0819818 33.6011995,24.9741045 33.6011995,22.1663434 C33.6011995,18.883277 36.2778984,16.077337 40.0820685,16.077337 C43.7578938,16.077337 46.0597384,18.9586703 46.0597384,21.9918827 C46.0597384,24.9478808 43.7840717,28.0819818 39.7053964,28.0819818 L39.7053964,28.0819818 Z M42.8318476,26.0521916 C43.433214,25.2494538 43.5837374,24.2478527 43.5837374,23.2691973 C43.5837374,21.0634895 42.5329822,16.8538511 39.4305276,16.8538511 C38.6051939,16.8538511 37.7798602,17.1801909 37.1795845,17.7072152 C36.2037274,18.5831609 36.0273896,19.686379 36.0273896,20.7651945 C36.0273896,23.2444304 37.2533919,27.3287777 40.281312,27.3287777 C41.2568055,27.3287777 42.2577498,26.8531082 42.8318476,26.0521916 L42.8318476,26.0521916 Z" id="Fill-18" fill="#FBFBFB"></path>
                            <path d="M26.1452006,28.0819818 C22.1672378,28.0819818 20.0406402,24.9741045 20.0406402,22.1663434 C20.0406402,18.883277 22.7180662,16.077337 26.5211456,16.077337 C30.1980616,16.077337 32.4999063,18.9586703 32.4999063,21.9918827 C32.4999063,24.9478808 30.2235124,28.0819818 26.1452006,28.0819818 L26.1452006,28.0819818 Z M29.2727426,26.0521916 C29.8733819,25.2494538 30.0239053,24.2478527 30.0239053,23.2691973 C30.0239053,21.0634895 28.9720593,16.8538511 25.8699682,16.8538511 C25.0449981,16.8538511 24.2189373,17.1801909 23.6186616,17.7072152 C22.6431681,18.5831609 22.467921,19.686379 22.467921,20.7651945 C22.467921,23.2444304 23.6931961,27.3287777 26.7218434,27.3287777 C27.6973369,27.3287777 28.6975541,26.8531082 29.2727426,26.0521916 L29.2727426,26.0521916 Z" id="Fill-19" fill="#FBFBFB"></path>
                            <path d="M18.1296473,27.6889899 L14.532356,28.520501 C13.0729334,28.7481376 11.7654885,28.9477294 10.3827819,28.9477294 C3.43979882,28.9477294 0.799821844,23.8330077 0.799821844,19.8266032 C0.799821844,14.9391539 4.5469094,10.4046325 10.9616063,10.4046325 C12.3203163,10.4046325 13.6270341,10.6056811 14.8090428,10.9334779 C16.6956755,11.4626875 17.5759102,12.1171883 18.1296473,12.4956114 L16.0412259,14.4864302 L15.1613548,14.6871147 L15.7903536,13.6785934 C14.9355697,12.8478108 13.3747074,11.3115368 10.4078692,11.3115368 C6.43354217,11.3115368 3.43979882,14.3360079 3.43979882,18.744874 C3.43979882,23.4804441 6.86111591,27.940665 12.3432221,27.940665 C13.9546224,27.940665 14.7832284,27.6132324 15.5380269,27.3102026 L15.5380269,23.2546286 L11.7407649,23.4556772 L13.7521066,22.3713985 L19.0847802,22.3713985 L18.4314213,23.0007682 C18.2539927,23.1526474 18.2296327,23.203638 18.1790946,23.403594 C18.1532802,23.6308664 18.1296473,24.3622173 18.1296473,24.6138924 L18.1296473,27.6889899" id="Fill-20" fill="#FBFBFB"></path>
                            <path d="M63.4302852,26.9634665 C62.5998614,26.887709 62.4264323,26.7372867 62.4264323,25.7531681 L62.4264323,11.4929176 C62.4311588,11.4382848 62.4347947,11.3829236 62.4398848,11.3301119 C62.5413245,10.4490671 62.7921969,10.2975522 63.5731734,9.84337163 L59.9747913,9.84337163 L58.087795,10.7506401 L60.0107861,10.7506401 L60.0107861,10.7622951 L60.0093317,10.7531897 L60.0093317,26.3086015 C60.0093317,26.8115873 59.9100735,26.887709 59.3308856,27.6430984 L63.7833244,27.6430984 L64.7140972,27.0898503 C64.286887,27.0384955 63.8585861,27.0137286 63.4302852,26.9634665" id="Fill-21" fill="#FBFBFB"></path>
                            <path d="M73.6651498,27.1951095 C73.3913718,27.345896 73.1165029,27.5218136 72.8427248,27.6460121 C72.0170276,28.0211573 71.168061,28.1213174 70.4172619,28.1213174 C69.6199241,28.1213174 68.3699254,28.0695983 67.095203,27.1448473 C65.3230989,25.893028 64.5486669,23.7412246 64.5486669,21.8647704 C64.5486669,17.9869351 67.6958423,16.0857141 70.2685564,16.0857141 C71.168061,16.0857141 72.0930165,16.3100727 72.8427248,16.7864706 C74.0905421,17.6106973 74.4152218,18.686599 74.5890145,19.2620644 L68.7204195,21.6404118 L66.7967013,21.7908341 C67.4202463,24.968277 69.5682953,26.8185075 71.9424931,26.8185075 C73.2157611,26.8185075 74.140353,26.3686975 74.9893195,25.9440186 L73.6651498,27.1951095 L73.6651498,27.1951095 Z M71.3182209,19.7377339 C71.7916061,19.5629089 72.0417512,19.4124867 72.0417512,19.0624726 C72.0417512,18.0623283 70.9182794,16.9103049 69.5682953,16.9103049 C68.5680782,16.9103049 66.6959887,17.6864548 66.6959887,20.3885925 C66.6959887,20.8139998 66.7457996,21.264174 66.7719776,21.715805 L71.3182209,19.7377339 L71.3182209,19.7377339 Z" id="Fill-22" fill="#FBFBFB"></path>
                            <path d="M76.076433,16.2565326 L76.076433,17.9075354 L75.8760988,17.9075354 L75.8760988,16.2565326 L75.3307241,16.2565326 L75.3307241,16.0857141 L76.6214441,16.0857141 L76.6214441,16.2565326 L76.076433,16.2565326" id="Fill-23" fill="#FBFBFB"></path>
                            <path d="M78.3230131,17.9075354 L78.3230131,16.2408712 L78.3139235,16.2408712 L77.8059979,17.9075354 L77.6496572,17.9075354 L77.1377322,16.2408712 L77.1311877,16.2408712 L77.1311877,17.9075354 L76.9493961,17.9075354 L76.9493961,16.0857141 L77.2609868,16.0857141 L77.7245553,17.5582498 L77.7307362,17.5582498 L78.187033,16.0857141 L78.5029867,16.0857141 L78.5029867,17.9075354 L78.3230131,17.9075354" id="Fill-24" fill="#FBFBFB"></path>
                            <path d="M5.79509023,5.49860806 L4.54545507,5.49860806 C4.54545507,5.32633267 4.42692697,4.83864398 4.18987078,4.03517776 L2.3854078,4.03517776 C2.14071636,4.82553211 2.01855244,5.3132208 2.01855244,5.49860806 L0.842724651,5.49860806 C0.842724651,5.39662686 1.14668013,4.56220207 1.75495468,2.99460525 C2.36250206,1.42700844 2.66682113,0.56344616 2.66682113,0.404282636 L4.14296856,0.404282636 C4.14296856,0.553248039 4.41856456,1.40406267 4.9690294,2.95745496 C5.51985781,4.51048303 5.79509023,5.35765547 5.79509023,5.49860806 L5.79509023,5.49860806 Z M3.99099082,3.28780122 C3.54560151,1.94201352 3.32308864,1.21430478 3.32308864,1.10467499 L3.26055235,1.10467499 C3.26055235,1.20629197 3.03004066,1.93436493 2.56901727,3.28780122 L3.99099082,3.28780122 L3.99099082,3.28780122 Z" id="Fill-25" fill="#FCFBFB"></path>
                            <path d="M10.8314435,5.49860806 L9.8668575,5.49860806 C9.8668575,5.3915278 9.50872814,4.82698898 8.79246941,3.80426318 C8.04276103,2.72726881 7.61555087,1.9904546 7.5115661,1.59382055 L7.44902981,1.59382055 C7.51411118,2.1649153 7.54683366,2.68137726 7.54683366,3.14320644 C7.54683366,3.78750912 7.56464924,4.5727644 7.60137113,5.49860806 L6.64078455,5.49860806 C6.67968794,4.69004279 6.69932143,3.80207787 6.69932143,2.83398485 C6.69932143,1.88228168 6.67968794,1.07225953 6.64078455,0.404282636 L7.80061468,0.404282636 C7.80061468,0.5426857 8.12202215,1.09447686 8.76520067,2.05929191 C9.45019126,3.08456724 9.8432246,3.77949631 9.94466429,4.14480756 L10.0035648,4.14480756 C9.94102846,3.56315047 9.90976031,3.04158945 9.90976031,2.57976028 C9.90976031,1.87317621 9.89121757,1.14765278 9.85485926,0.404282636 L10.8314435,0.404282636 C10.7947216,1.05149907 10.7765425,1.861157 10.7765425,2.83398485 C10.7765425,3.81482552 10.7947216,4.70315466 10.8314435,5.49860806" id="Fill-26" fill="#FCFBFB"></path>
                            <path d="M16.4924326,2.77534566 C16.4924326,3.51616627 16.2553764,4.16301849 15.7816276,4.71590231 C15.3075152,5.26915035 14.6436124,5.54559226 13.7895557,5.54559226 C13.4041576,5.54559226 12.8729627,5.52993086 12.1959709,5.49860806 C12.2297842,4.71080325 12.2468726,3.82283833 12.2468726,2.83398485 C12.2468726,1.88483121 12.2297842,1.07480906 12.1959709,0.404282636 L12.8795072,0.404282636 C12.9914908,0.404282636 13.1580118,0.40064045 13.379434,0.392627641 C13.6008561,0.38497905 13.7451986,0.380972646 13.8131886,0.380972646 C14.753051,0.380972646 15.4344057,0.615529418 15.8576164,1.08500718 C16.2808272,1.55484916 16.4924326,2.1179311 16.4924326,2.77534566 L16.4924326,2.77534566 Z M15.4260433,2.94361465 C15.4260433,2.44281409 15.2802465,2.02104896 14.9886528,1.67795505 C14.6970592,1.33486113 14.2516698,1.16331418 13.6528485,1.16331418 C13.5408649,1.16331418 13.3874328,1.17533339 13.1921887,1.19864338 C13.2180031,1.72056862 13.231092,2.26543963 13.231092,2.83398485 C13.231092,3.45752708 13.244181,4.07560603 13.2699954,4.68858592 C13.4394252,4.72245825 13.6084913,4.73957652 13.777921,4.73957652 C14.337839,4.73957652 14.7523238,4.56548003 15.0217389,4.21728706 C15.2915175,3.86909409 15.4260433,3.44441521 15.4260433,2.94361465 L15.4260433,2.94361465 Z" id="Fill-27" fill="#FCFBFB"></path>
                            <path d="M21.7120317,5.49860806 L20.5558374,5.49860806 C20.2536999,4.57494972 20.0220974,4.00531184 19.8606665,3.78860178 C19.6992356,3.57225594 19.4389101,3.46408301 19.07969,3.46408301 C18.9284394,3.46408301 18.7840969,3.46553989 18.6462989,3.4677252 C18.6462989,4.13825163 18.6579336,4.81533399 18.6812029,5.49860806 L17.5955437,5.49860806 C17.629357,4.71080325 17.6464454,3.82283833 17.6464454,2.83398485 C17.6464454,1.88483121 17.629357,1.07480906 17.5955437,0.404282636 L18.2710812,0.404282636 C18.3492515,0.404282636 18.5125003,0.40064045 18.7611912,0.392627641 C19.009882,0.38497905 19.2396666,0.380972646 19.4509084,0.380972646 C20.646006,0.380972646 21.2433731,0.790354342 21.2433731,1.60948195 C21.2433731,2.2588837 20.9023321,2.71160741 20.2202502,2.96692464 L20.2202502,3.02592805 C20.4831208,3.09877177 20.7136325,3.30419105 20.9114217,3.64182169 C21.1092109,3.97981654 21.3760809,4.59862392 21.7120317,5.49860806 L21.7120317,5.49860806 Z M20.2475189,1.89903573 C20.2475189,1.38002424 19.9141132,1.12033638 19.2476654,1.12033638 C19.002974,1.12033638 18.786642,1.13854731 18.5993967,1.17533339 C18.6277562,1.57961603 18.6422995,2.10627611 18.6422995,2.75567786 C18.7851877,2.76114114 18.9062608,2.76369067 19.005519,2.76369067 C19.8333978,2.76369067 20.2475189,2.47559376 20.2475189,1.89903573 L20.2475189,1.89903573 Z" id="Fill-28" fill="#FCFBFB"></path>
                            <path d="M27.3108481,2.85765906 C27.3108481,3.65821152 27.0657931,4.32218201 26.5764102,4.84920631 C26.0866637,5.3758664 25.4812979,5.63919644 24.7603125,5.63919644 C24.0727769,5.63919644 23.4972248,5.39735529 23.0340199,4.91367301 C22.5704515,4.42999072 22.338849,3.81482552 22.338849,3.06890584 C22.338849,2.26798916 22.5835404,1.60438289 23.0729233,1.07735859 C23.5626698,0.550698509 24.1680357,0.287004249 24.889021,0.287004249 C25.5765566,0.287004249 26.1521087,0.528481175 26.6153136,1.01070659 C27.0788821,1.49366044 27.3108481,2.10918986 27.3108481,2.85765906 L27.3108481,2.85765906 Z M26.2328241,2.97093104 C26.2328241,2.42606003 26.0935718,1.98389866 25.8147036,1.64481115 C25.5361989,1.30572365 25.1926129,1.13599778 24.7835819,1.13599778 C24.4036375,1.13599778 24.0807757,1.3068163 23.8149965,1.64845334 C23.5495808,1.9904546 23.4168729,2.42205363 23.4168729,2.94361465 C23.4168729,3.48630035 23.5564889,3.92773328 23.8364479,4.26791344 C24.1164069,4.60845783 24.4596293,4.77854791 24.8657516,4.77854791 C25.245696,4.77854791 25.5689214,4.60700095 25.8343371,4.26427126 C26.0997527,3.92117735 26.2328241,3.48994253 26.2328241,2.97093104 L26.2328241,2.97093104 Z" id="Fill-29" fill="#FCFBFB"></path>
                            <path d="M29.5188883,5.49860806 L28.4135957,5.49860806 C28.4474089,4.69004279 28.4644973,3.80207787 28.4644973,2.83398485 C28.4644973,1.88228168 28.4474089,1.07225953 28.4135957,0.404282636 L29.5188883,0.404282636 C29.4850751,1.06169719 29.4683503,1.87171934 29.4683503,2.83398485 C29.4683503,3.81737505 29.4850751,4.70570419 29.5188883,5.49860806" id="Fill-30" fill="#FCFBFB"></path>
                            <path d="M35.180241,2.77534566 C35.180241,3.51616627 34.9431848,4.16301849 34.469436,4.71590231 C33.9953236,5.26915035 33.3314208,5.54559226 32.4773641,5.54559226 C32.091966,5.54559226 31.5607711,5.52993086 30.8837793,5.49860806 C30.9175926,4.71080325 30.934681,3.82283833 30.934681,2.83398485 C30.934681,1.88483121 30.9175926,1.07480906 30.8837793,0.404282636 L31.5673156,0.404282636 C31.6792992,0.404282636 31.8458202,0.40064045 32.0672424,0.392627641 C32.2886645,0.38497905 32.433007,0.380972646 32.500997,0.380972646 C33.4404958,0.380972646 34.1222141,0.615529418 34.5454249,1.08500718 C34.9686356,1.55484916 35.180241,2.1179311 35.180241,2.77534566 L35.180241,2.77534566 Z M34.1138517,2.94361465 C34.1138517,2.44281409 33.9680549,2.02104896 33.6764612,1.67795505 C33.3848676,1.33486113 32.9394782,1.16331418 32.3406569,1.16331418 C32.2286733,1.16331418 32.0752412,1.17533339 31.8799971,1.19864338 C31.9058115,1.72056862 31.9189004,2.26543963 31.9189004,2.83398485 C31.9189004,3.45752708 31.9319894,4.07560603 31.9578038,4.68858592 C32.1272336,4.72245825 32.2962997,4.73957652 32.4657294,4.73957652 C33.0252839,4.73957652 33.4401322,4.56548003 33.7095473,4.21728706 C33.9789624,3.86909409 34.1138517,3.44441521 34.1138517,2.94361465 L34.1138517,2.94361465 Z" id="Fill-31" fill="#FCFBFB"></path>
                            <path d="M42.6900502,5.49860806 L41.440415,5.49860806 C41.440415,5.32633267 41.3218869,4.83864398 41.0844671,4.03517776 L39.2803677,4.03517776 C39.0356763,4.82553211 38.9131488,5.3132208 38.9131488,5.49860806 L37.7376846,5.49860806 C37.7376846,5.39662686 38.0416401,4.56220207 38.649551,2.99460525 C39.257462,1.42700844 39.5614175,0.56344616 39.5614175,0.404282636 L41.0379285,0.404282636 C41.0379285,0.553248039 41.3131609,1.40406267 41.8639893,2.95745496 C42.4148177,4.51048303 42.6900502,5.35765547 42.6900502,5.49860806 L42.6900502,5.49860806 Z M40.8859507,3.28780122 C40.4405614,1.94201352 40.217685,1.21430478 40.217685,1.10467499 L40.1551487,1.10467499 C40.1551487,1.20629197 39.9250006,1.93436493 39.4639772,3.28780122 L40.8859507,3.28780122 L40.8859507,3.28780122 Z" id="Fill-32" fill="#FCFBFB"></path>
                            <path d="M47.2461101,1.73841533 C47.2461101,2.36195756 47.0148713,2.82232986 46.5527571,3.11953223 C46.090643,3.41709882 45.5234533,3.5657 44.8519153,3.5657 C44.7293878,3.5657 44.6424915,3.56315047 44.5901355,3.55805141 C44.5901355,4.04828963 44.6043152,4.69514185 44.6330383,5.49860806 L43.5357445,5.49860806 C43.5691941,4.74467558 43.5862825,3.85671066 43.5862825,2.83398485 C43.5862825,1.89502933 43.5691941,1.08500718 43.5357445,0.404282636 L44.2152813,0.404282636 C44.3112673,0.404282636 44.4963311,0.40064045 44.7697456,0.392627641 C45.0431601,0.38497905 45.2802162,0.380972646 45.4805505,0.380972646 C45.9753872,0.380972646 46.3931442,0.493151972 46.7345487,0.717510623 C47.0755897,0.941869275 47.2461101,1.28204944 47.2461101,1.73841533 L47.2461101,1.73841533 Z M46.2382577,1.95366852 C46.2382577,1.39568564 45.8688573,1.11632998 45.1289657,1.11632998 C44.9442655,1.11632998 44.7490213,1.13599778 44.5432333,1.17533339 C44.5719563,1.66812114 44.5861361,2.22646824 44.5861361,2.84964625 C44.6512175,2.85510953 44.7268428,2.85765906 44.8126484,2.85765906 C45.7634182,2.85765906 46.2382577,2.55645029 46.2382577,1.95366852 L46.2382577,1.95366852 Z" id="Fill-33" fill="#FCFBFB"></path>
                            <path d="M51.9301514,1.73841533 C51.9301514,2.36195756 51.6992761,2.82232986 51.237162,3.11953223 C50.7750478,3.41709882 50.2078582,3.5657 49.5363202,3.5657 C49.4137927,3.5657 49.3265327,3.56315047 49.2745403,3.55805141 C49.2745403,4.04828963 49.2887201,4.69514185 49.3174431,5.49860806 L48.2197857,5.49860806 C48.2535989,4.74467558 48.2706873,3.85671066 48.2706873,2.83398485 C48.2706873,1.89502933 48.2535989,1.08500718 48.2197857,0.404282636 L48.8996861,0.404282636 C48.9956721,0.404282636 49.1807359,0.40064045 49.4541504,0.392627641 C49.7275649,0.38497905 49.9642575,0.380972646 50.1649554,0.380972646 C50.6594284,0.380972646 51.077549,0.493151972 51.4185899,0.717510623 C51.7599945,0.941869275 51.9301514,1.28204944 51.9301514,1.73841533 L51.9301514,1.73841533 Z M50.9226626,1.95366852 C50.9226626,1.39568564 50.5528985,1.11632998 49.8133705,1.11632998 C49.6283067,1.11632998 49.4330626,1.13599778 49.2276381,1.17533339 C49.2563612,1.66812114 49.2705409,2.22646824 49.2705409,2.84964625 C49.3356223,2.85510953 49.4112476,2.85765906 49.4970532,2.85765906 C50.4474594,2.85765906 50.9226626,2.55645029 50.9226626,1.95366852 L50.9226626,1.95366852 Z" id="Fill-34" fill="#FCFBFB"></path>
                            <path d="M59.5890296,2.85765906 C59.5890296,3.65821152 59.3443382,4.32218201 58.8545918,4.84920631 C58.3652089,5.3758664 57.759843,5.63919644 57.0384941,5.63919644 C56.351322,5.63919644 55.77577,5.39735529 55.3122015,4.91367301 C54.8489966,4.42999072 54.6170306,3.81482552 54.6170306,3.06890584 C54.6170306,2.26798916 54.861722,1.60438289 55.3514685,1.07735859 C55.8408513,0.550698509 56.4462172,0.287004249 57.1675661,0.287004249 C57.8547382,0.287004249 58.4302903,0.528481175 58.8938587,1.01070659 C59.3570636,1.49366044 59.5890296,2.10918986 59.5890296,2.85765906 L59.5890296,2.85765906 Z M58.5110057,2.97093104 C58.5110057,2.42606003 58.3717534,1.98389866 58.0932487,1.64481115 C57.8143805,1.30572365 57.4707944,1.13599778 57.062127,1.13599778 C56.6818191,1.13599778 56.3589573,1.3068163 56.0935416,1.64845334 C55.8277623,1.9904546 55.6950545,2.42205363 55.6950545,2.94361465 C55.6950545,3.48630035 55.835034,3.92773328 56.114993,4.26791344 C56.394952,4.60845783 56.7378109,4.77854791 57.1439332,4.77854791 C57.5242411,4.77854791 57.8471029,4.60700095 58.1125186,4.26427126 C58.3782979,3.92117735 58.5110057,3.48994253 58.5110057,2.97093104 L58.5110057,2.97093104 Z" id="Fill-35" fill="#FCFBFB"></path>
                            <path d="M64.8827998,5.49860806 L63.9182138,5.49860806 C63.9182138,5.3915278 63.560448,4.82698898 62.8441892,3.80426318 C62.0944809,2.72726881 61.6672707,1.9904546 61.5632859,1.59382055 L61.5007496,1.59382055 C61.5654674,2.1649153 61.5981899,2.68137726 61.5981899,3.14320644 C61.5981899,3.78750912 61.6163691,4.5727644 61.653091,5.49860806 L60.6921408,5.49860806 C60.7310442,4.69004279 60.7506777,3.80207787 60.7506777,2.83398485 C60.7506777,1.88228168 60.7310442,1.07225953 60.6921408,0.404282636 L61.8523345,0.404282636 C61.8523345,0.5426857 62.173742,1.09447686 62.8169205,2.05929191 C63.5019111,3.08456724 63.8949444,3.77949631 63.9963841,4.14480756 L64.054921,4.14480756 C63.9923847,3.56315047 63.9611166,3.04158945 63.9611166,2.57976028 C63.9611166,1.87317621 63.943301,1.14765278 63.9065791,0.404282636 L64.8827998,0.404282636 C64.8464414,1.05149907 64.8282623,1.861157 64.8282623,2.83398485 C64.8282623,3.81482552 64.8464414,4.70315466 64.8827998,5.49860806" id="Fill-36" fill="#FCFBFB"></path>
                        </g>
                        <g id="Imported-Layers" transform="translate(18.665615, 11.041360)">
                            <path d="M1.03995378,0.632723946 C1.18784543,0.76399524 1.37760347,0.911513895 1.54343786,1.08303433 C7.47432799,7.22029044 13.4001434,13.3629008 19.339733,19.4914793 C19.6978628,19.8607375 19.7065623,20.0710301 19.3415454,20.4404729 C13.5369794,26.3157403 7.74093169,32.2000546 1.96047056,38.1000623 C1.51824553,38.5512958 1.20814429,38.4519653 0.817753828,38.1043087 C0.183958363,37.5395283 0.107293942,36.8010119 0.107837661,36.0058143 C0.112912375,28.4389751 0.103487907,20.8721358 0.102400468,13.3054811 C0.101856749,9.73733904 0.113456094,6.16919694 0.111824936,2.60105484 C0.111643696,2.00377969 0.168552983,1.43272186 0.555318646,0.948808975 C0.66895598,0.806829192 0.779330998,0.657279617 1.03995378,0.632723946" id="Fill-1" fill="#FFFFFE"></path>
                            <path d="M2.31135075,0.15896566 C2.80160432,0.153426787 3.13417929,0.368335066 3.4714665,0.560718594 C10.7926469,4.73592119 18.1107462,8.91684729 25.4377262,13.081526 C25.9673088,13.3824715 26.1802656,13.5672852 25.6278468,14.1043713 C24.0773406,15.6118679 22.5716006,17.167922 21.0647732,18.721576 C20.7365479,19.0600011 20.5179728,19.1814871 20.1245012,18.7721643 C14.2287716,12.6415549 8.3179991,6.52571574 2.41302626,0.404337742 C2.37442219,0.364457855 2.36590392,0.294298795 2.31135075,0.15896566" id="Fill-2" fill="#FEFEFD"></path>
                            <path d="M4.24662898,37.5284506 C4.2799771,37.2491067 4.5128702,37.1342674 4.67181747,36.9727169 C9.75740533,31.8018096 14.8560425,26.6440109 19.9244125,21.4555638 C20.4616072,20.905369 20.7552156,20.9081385 21.2650431,21.468857 C22.4543384,22.7767696 23.6983682,24.0344631 24.9491038,25.2823712 C25.3659553,25.698156 25.4630998,25.9106641 24.8548592,26.24872 C18.2321768,29.9281934 11.6230875,33.6331457 5.00892344,37.3284972 C4.77802398,37.457553 4.55292419,37.6462439 4.24662898,37.5284506" id="Fill-3" fill="#FCFDFC"></path>
                            <path d="M34.979275,19.413012 C34.9578887,20.2386733 34.5894283,20.7329254 34.0486088,21.0438408 C31.6604124,22.4172968 29.2508297,23.7521652 26.8579211,25.1171282 C26.5081283,25.3167122 26.3107582,25.176948 26.0804025,24.9371148 C24.6464334,23.4438346 23.2148205,21.9477849 21.7594652,20.4761063 C21.4163783,20.1290036 21.4406644,19.9148339 21.7725144,19.5837939 C23.4531508,17.9073616 25.1209191,16.2170821 26.7749132,14.5131401 C27.0824771,14.1963166 27.3209887,14.1558828 27.705217,14.3796533 C29.7720753,15.5838043 31.8563326,16.7569376 33.929353,17.9503802 C34.5365063,18.2998831 34.9651383,18.7891502 34.979275,19.413012" id="Fill-4" fill="#FEFEFE"></path>
                        </g>
                    </g>
                </g>
            </g>
        </g>
    </g>
</svg>